<?xml version="1.0" standalone="no"?>
<!DOCTYPE svg PUBLIC "-//W3C//DTD SVG 20010904//EN"
 "http://www.w3.org/TR/2001/REC-SVG-20010904/DTD/svg10.dtd">
<svg version="1.0" xmlns="http://www.w3.org/2000/svg"
 width="1368.000000pt" height="1368.000000pt" viewBox="0 0 1368.000000 1368.000000"
 preserveAspectRatio="xMidYMid meet">
<metadata>
Created by potrace 1.14, written by Peter Selinger 2001-2017
</metadata>
<g transform="translate(0.000000,1368.000000) scale(0.100000,-0.100000)"
fill="#000000" stroke="none">
<path d="M6412 13665 c-556 -63 -1047 -234 -1457 -506 -472 -314 -785 -736
-894 -1204 l-12 -50 -307 0 c-330 0 -437 -10 -687 -62 -905 -189 -1586 -775
-1711 -1473 -23 -126 -23 -344 0 -470 29 -163 107 -368 192 -502 13 -21 24
-41 24 -45 0 -5 -28 -19 -62 -32 -193 -73 -475 -231 -665 -372 -130 -97 -371
-340 -453 -456 -130 -186 -218 -384 -261 -583 -32 -151 -32 -409 0 -560 43
-199 131 -397 261 -583 82 -117 323 -359 455 -458 695 -518 1727 -748 2730
-608 77 10 145 19 151 19 7 0 14 -26 18 -62 44 -389 230 -824 504 -1178 96
-124 309 -338 447 -449 578 -464 1302 -699 2090 -678 510 14 936 118 1375 338
304 152 529 315 770 558 203 204 373 438 480 659 19 39 40 72 46 72 6 0 62
-13 125 -30 530 -137 1143 -173 1714 -100 1281 164 2225 838 2294 1639 30 336
-89 661 -346 953 -156 176 -344 322 -626 482 -33 19 -45 31 -39 39 5 7 31 39
57 72 131 162 260 399 325 594 226 678 45 1402 -483 1933 -602 604 -1538 861
-2442 671 -147 -30 -309 -79 -438 -131 -93 -38 -98 -39 -92 -18 117 391 110
732 -21 1084 -180 482 -584 894 -1148 1172 -329 162 -657 260 -1056 316 -161
22 -690 28 -858 9z m538 -480 c58 -3 121 -8 140 -10 19 -3 60 -7 90 -11 77 -8
111 -13 140 -19 14 -4 43 -8 65 -11 21 -3 42 -7 46 -10 4 -2 24 -6 45 -9 22
-4 53 -10 69 -15 17 -5 41 -11 55 -13 14 -2 32 -7 40 -10 8 -4 24 -8 35 -10
11 -2 27 -7 35 -10 8 -3 49 -15 90 -27 41 -12 85 -26 98 -31 12 -5 32 -13 45
-18 93 -38 143 -55 150 -53 4 1 7 -2 7 -7 0 -4 21 -16 48 -26 74 -28 326 -164
342 -185 3 -4 12 -10 20 -14 34 -16 169 -112 190 -136 23 -25 126 -104 133
-102 5 1 6 -1 3 -6 -3 -5 11 -25 32 -44 20 -19 53 -54 72 -77 19 -24 42 -50
51 -60 31 -33 79 -99 79 -109 0 -6 4 -12 9 -14 13 -5 83 -127 122 -213 59
-132 63 -140 61 -148 -1 -4 5 -24 13 -44 37 -88 59 -243 59 -418 0 -139 -7
-280 -14 -280 -1 0 -3 -9 -4 -20 -2 -11 -9 -47 -16 -80 -7 -33 -13 -64 -14
-70 -1 -5 -5 -16 -10 -23 -14 -23 2 -26 46 -9 62 23 207 65 247 72 19 3 37 8
41 10 4 2 26 7 50 10 23 3 45 7 49 9 3 2 31 7 62 10 31 4 67 9 80 11 108 21
506 21 652 0 20 -3 54 -7 75 -10 103 -15 227 -39 312 -61 52 -14 102 -26 110
-28 8 -3 38 -12 65 -21 28 -10 55 -19 60 -20 6 -1 19 -5 30 -9 11 -5 38 -15
60 -23 67 -24 259 -106 271 -115 28 -21 103 -56 108 -51 3 4 6 2 6 -4 0 -5 12
-15 26 -22 63 -28 291 -186 384 -266 64 -55 240 -234 240 -245 0 -6 6 -13 14
-16 8 -3 30 -29 50 -57 19 -29 48 -70 63 -93 27 -39 43 -65 67 -109 6 -11 13
-22 16 -25 7 -6 85 -185 98 -225 6 -16 14 -39 18 -50 4 -11 8 -22 9 -25 9 -38
27 -112 30 -126 2 -11 4 -19 5 -19 1 0 3 -11 4 -25 2 -14 6 -56 11 -95 4 -38
8 -92 8 -120 0 -66 -12 -256 -17 -264 -4 -5 -10 -35 -21 -106 -6 -35 -55 -194
-72 -233 -9 -20 -19 -46 -24 -57 -20 -50 -100 -213 -118 -239 -11 -17 -18 -33
-15 -37 2 -4 -3 -9 -11 -13 -8 -3 -15 -14 -15 -25 0 -10 -7 -21 -15 -25 -8 -3
-15 -12 -15 -20 0 -8 -3 -16 -7 -18 -5 -1 -28 -32 -53 -68 -24 -36 -50 -71
-57 -78 -27 -28 -33 -49 -18 -62 8 -7 15 -9 15 -4 0 5 4 4 8 -2 4 -5 41 -32
82 -58 99 -63 159 -105 190 -133 14 -13 31 -23 38 -23 7 0 10 -4 7 -10 -3 -5
-3 -10 2 -10 4 0 27 -18 50 -39 23 -22 44 -37 47 -34 3 4 6 0 6 -8 0 -17 34
-49 52 -49 6 0 9 -3 6 -6 -4 -3 1 -13 10 -23 42 -44 90 -101 85 -101 -4 0 3
-10 14 -22 30 -33 95 -144 122 -208 13 -30 29 -68 36 -85 73 -170 78 -475 11
-664 -9 -24 -13 -47 -10 -52 3 -5 0 -9 -5 -9 -6 0 -11 -6 -11 -13 0 -32 -145
-289 -174 -309 -6 -4 -7 -8 -3 -8 4 0 -2 -11 -15 -24 -56 -59 -113 -130 -110
-138 1 -4 -2 -7 -7 -6 -4 2 -44 -31 -89 -72 -136 -127 -318 -251 -497 -337
-44 -21 -81 -41 -83 -45 -2 -5 -12 -8 -21 -8 -10 0 -21 -3 -25 -7 -4 -5 -11
-8 -14 -9 -4 0 -23 -7 -43 -16 -105 -46 -379 -127 -483 -142 -21 -4 -41 -8
-45 -10 -3 -2 -33 -7 -66 -10 -33 -4 -69 -9 -80 -11 -134 -31 -656 -37 -779
-10 -12 3 -43 7 -71 10 -63 6 -100 12 -195 31 -41 9 -86 18 -100 20 -14 3 -52
12 -85 21 -33 8 -67 16 -75 18 -8 1 -22 5 -30 7 -8 3 -86 29 -172 57 -86 28
-193 67 -238 86 -45 19 -86 35 -90 35 -10 0 -80 -129 -80 -147 0 -7 -4 -13 -8
-13 -5 0 -17 -18 -27 -40 -10 -22 -22 -40 -27 -40 -4 0 -8 -5 -8 -11 0 -13
-138 -221 -172 -260 -13 -15 -34 -41 -48 -60 -14 -18 -37 -47 -52 -65 -15 -17
-24 -34 -20 -38 4 -4 2 -6 -4 -4 -13 3 -64 -47 -64 -64 0 -6 -3 -9 -6 -5 -8 7
-53 -36 -47 -45 2 -5 -1 -8 -7 -8 -6 0 -25 -15 -43 -33 -52 -51 -147 -137
-147 -132 0 4 -27 -17 -64 -50 -22 -20 -212 -144 -281 -183 -89 -51 -268 -136
-310 -148 -33 -9 -81 -30 -87 -39 -4 -5 -8 -7 -8 -4 0 4 -35 -4 -77 -18 -43
-13 -118 -35 -168 -47 -81 -21 -116 -29 -192 -42 -67 -12 -82 -14 -128 -19
-27 -3 -84 -10 -125 -15 -77 -9 -527 -6 -568 4 -12 3 -48 7 -80 10 -31 3 -70
8 -87 11 -16 3 -43 7 -60 10 -16 3 -41 7 -55 10 -14 3 -36 7 -50 10 -14 3 -54
12 -90 20 -36 8 -76 17 -90 20 -36 8 -311 94 -335 105 -11 5 -60 26 -110 46
-108 44 -266 119 -316 150 -20 13 -40 20 -43 17 -3 -4 -6 -2 -6 4 0 6 -8 13
-17 17 -10 3 -27 11 -37 18 -51 34 -131 82 -133 80 -2 -1 -11 5 -20 14 -10 8
-61 46 -113 84 -52 38 -104 77 -116 87 -11 10 -47 41 -79 68 -70 61 -182 173
-238 239 -23 26 -52 60 -65 75 -34 38 -131 175 -181 255 -88 140 -196 387
-225 516 -4 14 -16 72 -29 129 l-23 104 -324 2 c-179 2 -347 6 -375 9 -27 2
-88 8 -135 11 -89 7 -128 11 -195 21 -22 4 -56 7 -75 9 -19 1 -48 5 -65 8 -16
4 -46 9 -65 11 -19 3 -82 14 -140 26 -58 12 -114 23 -125 24 -11 2 -27 6 -35
9 -8 3 -61 17 -116 31 -96 24 -315 95 -359 115 -55 26 -119 51 -131 51 -8 0
-14 4 -14 8 0 4 -23 16 -51 27 -28 11 -55 26 -61 33 -6 6 -19 12 -29 12 -11 0
-19 3 -19 8 0 4 -12 13 -28 19 -41 19 -209 129 -276 182 -32 25 -89 76 -127
112 -37 37 -71 64 -74 61 -3 -3 -5 0 -5 7 0 6 -12 24 -26 39 -146 155 -302
473 -320 656 -3 22 -8 63 -12 91 -18 114 -5 287 33 441 29 114 126 345 160
380 5 6 19 27 30 47 11 20 23 37 28 37 4 0 5 5 2 10 -3 6 -2 10 3 10 5 0 23
19 40 43 17 24 59 74 95 111 35 36 61 69 58 71 -2 3 0 5 6 5 5 0 25 14 44 31
19 17 50 43 69 57 19 14 40 31 45 36 53 57 399 241 489 261 36 8 37 21 8 86
-16 35 -37 87 -47 114 -9 28 -21 59 -25 70 -9 21 -18 51 -25 84 -3 12 -7 29
-10 39 -13 46 -34 153 -41 207 -18 140 -6 395 23 490 3 11 7 29 9 40 1 11 16
58 34 105 17 47 34 95 37 108 3 12 9 22 14 22 5 0 9 5 9 11 0 6 16 37 35 70
19 32 32 59 30 59 -3 0 2 8 9 18 8 9 36 46 63 82 60 81 74 97 143 168 48 49
156 146 198 177 7 6 21 17 30 25 19 16 152 102 217 141 22 12 43 28 47 33 4 6
8 8 8 4 0 -3 43 16 95 43 52 27 95 46 95 43 0 -3 10 0 23 8 18 12 116 52 232
94 25 9 19 7 90 28 33 10 67 20 75 23 8 3 22 7 30 8 8 1 42 9 75 18 52 13 127
29 160 33 6 0 26 4 45 7 77 15 80 15 280 36 36 4 136 6 222 6 86 0 154 3 152
7 -3 5 -1 8 4 8 5 0 12 14 16 31 8 40 95 249 113 270 7 8 13 19 13 24 0 8 90
166 100 175 13 12 50 70 50 79 0 5 3 11 8 13 4 2 25 26 47 53 21 28 44 53 50
57 5 4 7 8 3 8 -4 0 41 48 101 108 105 104 181 173 181 165 0 -2 10 6 23 18
52 49 263 180 407 252 85 42 160 77 167 77 7 0 13 5 13 11 0 5 5 7 10 4 6 -3
16 -3 23 2 6 4 17 9 22 10 6 1 37 12 70 24 142 51 386 111 540 133 43 7 87 13
150 21 22 3 119 8 215 12 96 3 176 6 177 7 2 2 88 -2 203 -9z"/>
<path d="M4379 2795 c-314 -59 -580 -230 -693 -445 -49 -92 -65 -148 -73 -246
-26 -349 276 -661 737 -760 105 -22 317 -29 436 -14 258 32 479 134 639 295
163 163 231 380 180 580 -29 116 -81 202 -185 305 -137 137 -269 209 -489 267
-83 22 -122 26 -286 29 -135 2 -212 -1 -266 -11z m549 -399 c66 -9 163 -45
201 -73 86 -66 73 -171 -35 -277 -26 -26 -68 -59 -93 -73 -25 -15 -53 -32 -61
-38 -17 -13 -175 -77 -187 -76 -2 0 -24 -6 -50 -14 -51 -16 -159 -29 -233 -29
-205 2 -381 68 -452 171 -101 147 -6 294 242 372 36 11 85 23 110 26 62 8 104
16 107 18 5 6 410 -1 451 -7z"/>
<path d="M2640 1237 c-195 -59 -350 -207 -417 -399 -34 -97 -42 -251 -19 -353
53 -226 236 -413 461 -470 76 -19 231 -19 314 0 91 22 211 88 280 154 342 330
222 891 -227 1059 -55 21 -88 26 -192 29 -108 3 -135 0 -200 -20z m370 -327
c130 -24 190 -86 184 -190 -4 -59 -6 -67 -32 -120 -44 -91 -150 -190 -253
-238 -50 -22 -132 -37 -189 -34 -63 3 -152 43 -196 87 -41 42 -60 77 -77 152
-13 56 -12 65 7 122 12 34 33 76 47 94 55 68 160 119 268 130 29 3 54 7 56 9
7 7 124 0 185 -12z"/>
</g>
</svg>
